<svg width="236" height="236" viewBox="0 0 236 236" fill="none" xmlns="http://www.w3.org/2000/svg">
<path d="M113.084 120.458C113.084 118.502 113.861 116.626 115.244 115.243C116.627 113.86 118.503 113.083 120.459 113.083C122.415 113.083 124.29 112.306 125.674 110.923C127.057 109.54 127.834 107.664 127.834 105.708C127.834 103.752 127.057 101.876 125.674 100.493C124.29 99.1103 122.415 98.3333 120.459 98.3333C114.591 98.3333 108.963 100.664 104.814 104.814C100.665 108.963 98.3337 114.59 98.3337 120.458C98.3337 122.414 99.1107 124.29 100.494 125.673C101.877 127.056 103.753 127.833 105.709 127.833C107.665 127.833 109.54 127.056 110.924 125.673C112.307 124.29 113.084 122.414 113.084 120.458ZM68.8337 122.917C68.8337 108.573 74.5317 94.8166 84.6743 84.674C94.8169 74.5314 108.573 68.8333 122.917 68.8333C137.261 68.8333 151.017 74.5314 161.16 84.674C171.302 94.8166 177 108.573 177 122.917C177 137.26 171.302 151.017 161.16 161.159C151.017 171.302 137.261 177 122.917 177C108.573 177 94.8169 171.302 84.6743 161.159C74.5317 151.017 68.8337 137.26 68.8337 122.917ZM122.917 83.5833C112.485 83.5833 102.481 87.7274 95.1041 95.1038C87.7277 102.48 83.5837 112.485 83.5837 122.917C83.5837 133.349 87.7277 143.353 95.1041 150.73C102.481 158.106 112.485 162.25 122.917 162.25C133.349 162.25 143.353 158.106 150.73 150.73C158.106 143.353 162.25 133.349 162.25 122.917C162.25 112.485 158.106 102.48 150.73 95.1038C143.353 87.7274 133.349 83.5833 122.917 83.5833ZM61.1145 63.8577C75.599 37.6125 102.1 19.6667 132.75 19.6667C179.557 19.6667 216.334 61.1732 216.334 110.871C216.327 116.443 215.881 121.884 214.996 127.194C214.436 130.577 214.554 134.176 215.232 137.844C215.953 141.784 216.321 145.822 216.334 149.958C216.336 161.236 213.465 172.328 207.991 182.188C202.518 192.048 194.622 200.351 185.05 206.313C175.477 212.275 164.544 215.7 153.28 216.264C142.017 216.829 130.796 214.514 120.675 209.538C112.829 205.78 104.032 204.475 95.4328 205.792C92.3264 206.278 89.1861 206.515 86.042 206.5C48.8425 206.5 19.667 174.011 19.667 135.208C19.667 109.927 31.939 87.5167 50.7403 74.8317C55.126 71.8522 58.7447 68.1352 61.1145 63.8577ZM132.75 34.4167C108.157 34.4167 86.2682 48.8127 74.0257 70.9868C70.3382 77.6538 64.9593 83.013 58.9807 87.0447C44.3782 96.9272 34.417 114.696 34.417 135.208C34.417 166.999 58.076 191.75 86.042 191.75C88.4807 191.75 90.8734 191.57 93.2203 191.209C104.796 189.44 116.637 191.216 127.185 196.303C135.779 200.53 145.38 202.282 154.914 201.364C164.448 200.446 173.538 196.895 181.169 191.106C188.799 185.317 194.669 177.52 198.122 168.586C201.574 159.652 202.473 149.934 200.718 140.518C199.708 135.33 199.615 130.005 200.443 124.785C201.197 120.275 201.577 115.637 201.584 110.871C201.584 67.968 170.117 34.4167 132.75 34.4167Z" fill="#083D21"/>
</svg>
