<svg width="236" height="236" viewBox="0 0 236 236" fill="none" xmlns="http://www.w3.org/2000/svg">
<path d="M9.83301 216.333C9.83301 221.643 14.258 226.167 19.6663 226.167H147.5C153.006 226.167 157.333 221.643 157.333 216.333V206.5H9.83301V216.333ZM83.583 88.5C46.708 88.5 9.83301 108.167 9.83301 147.5H157.333C157.333 108.167 120.458 88.5 83.583 88.5ZM35.5963 127.833C46.5113 112.592 69.718 108.167 83.583 108.167C97.448 108.167 120.655 112.592 131.57 127.833H35.5963ZM9.83301 167.167H157.333V186.833H9.83301V167.167ZM177 49.1666V9.83331H157.333V49.1666H108.166L110.428 68.8333H204.435L190.668 206.5H177V226.167H193.913C202.173 226.167 208.958 219.775 209.941 211.712L226.166 49.1666H177Z" fill="#083D21"/>
</svg>
