<svg width="236" height="236" viewBox="0 0 236 236" fill="none" xmlns="http://www.w3.org/2000/svg">
<g clip-path="url(#clip0_123_48)">
<path d="M173.314 45.194C174.675 43.8366 176.518 43.0743 178.44 43.0743C180.362 43.0743 182.205 43.8366 183.565 45.194L195.579 57.2153C196.934 58.5754 197.695 60.4172 197.695 62.3372C197.695 64.2572 196.934 66.099 195.579 67.4592L188.964 74.0745C183.371 65.0739 176.127 57.2118 167.613 50.9023L173.314 45.194ZM50.9039 167.612C57.2135 176.125 65.0756 183.369 74.0762 188.962L67.4534 195.578C66.0936 196.931 64.2534 197.69 62.3352 197.69C60.417 197.69 58.5768 196.931 57.2169 195.578L45.1957 183.556C43.8428 182.197 43.0833 180.356 43.0833 178.438C43.0833 176.52 43.8428 174.68 45.1957 173.32L50.9039 167.612ZM123.459 90.565C123.283 91.1471 123.224 91.7581 123.284 92.3632C123.345 92.9682 123.524 93.5554 123.812 94.0911C124.099 94.6268 124.49 95.1005 124.961 95.4851C125.432 95.8696 125.974 96.1575 126.557 96.3323L143.468 101.392C144.645 101.744 145.914 101.613 146.996 101.03C148.077 100.446 148.883 99.4568 149.235 98.2793C149.587 97.1018 149.457 95.8326 148.873 94.7511C148.289 93.6695 147.3 92.8641 146.123 92.512L129.219 87.4528C126.771 86.7153 124.197 88.1165 123.459 90.565ZM93.1701 106.584C91.9591 106.783 90.8762 107.453 90.1577 108.448C89.4392 109.443 89.1435 110.681 89.3351 111.894L92.1523 129.321C92.3479 130.533 93.0172 131.619 94.0131 132.338C95.0089 133.057 96.2496 133.351 97.4623 133.156C98.675 132.96 99.7603 132.291 100.48 131.295C101.199 130.299 101.493 129.058 101.297 127.846L98.4801 110.419C98.2808 109.208 97.6106 108.125 96.6158 107.406C95.6209 106.688 94.3822 106.392 93.1701 106.584ZM125.17 150.966C124.738 151.394 124.225 151.733 123.662 151.963C123.099 152.193 122.495 152.31 121.887 152.307C121.278 152.304 120.677 152.181 120.116 151.945C119.555 151.709 119.046 151.366 118.617 150.933C118.189 150.501 117.851 149.988 117.621 149.425C117.391 148.861 117.274 148.258 117.277 147.65C117.28 147.041 117.403 146.439 117.639 145.879C117.874 145.318 118.218 144.808 118.651 144.38L131.188 131.961C132.065 131.12 133.238 130.657 134.453 130.672C135.668 130.687 136.829 131.18 137.684 132.043C138.54 132.906 139.022 134.071 139.026 135.286C139.03 136.502 138.557 137.67 137.708 138.539L125.17 150.966ZM103.34 92.8734C103.787 93.3556 104.326 93.7426 104.926 94.0114C105.525 94.2802 106.173 94.4251 106.83 94.4376C107.487 94.45 108.14 94.3297 108.749 94.0838C109.359 93.8379 109.912 93.4715 110.377 93.0066C110.841 92.5417 111.207 91.9878 111.452 91.3781C111.697 90.7685 111.817 90.1156 111.804 89.4585C111.791 88.8015 111.645 88.1539 111.375 87.5546C111.106 86.9552 110.718 86.4164 110.236 85.9704C109.309 85.114 108.086 84.6497 106.825 84.6749C105.563 84.7001 104.36 85.2129 103.468 86.1058C102.576 86.9986 102.065 88.202 102.041 89.4638C102.017 90.7255 102.483 91.9475 103.34 92.8734ZM93.9592 152.161C94.4089 152.63 94.9477 153.005 95.544 153.263C96.1404 153.521 96.7823 153.658 97.4321 153.665C98.0819 153.671 98.7265 153.548 99.3282 153.303C99.9298 153.057 100.476 152.694 100.936 152.235C101.395 151.775 101.759 151.229 102.004 150.627C102.25 150.025 102.373 149.381 102.366 148.731C102.359 148.081 102.222 147.439 101.964 146.843C101.706 146.247 101.331 145.708 100.862 145.258C99.9353 144.402 98.7129 143.937 97.4512 143.963C96.1895 143.988 94.9865 144.501 94.0947 145.393C93.2028 146.286 92.6913 147.49 92.6674 148.751C92.6435 150.013 93.1018 151.235 93.9592 152.161ZM159.117 131.282C158.671 131.765 158.133 132.153 157.533 132.422C156.934 132.691 156.286 132.837 155.629 132.85C154.972 132.863 154.319 132.744 153.71 132.499C153.1 132.253 152.546 131.888 152.081 131.423C151.616 130.959 151.25 130.405 151.004 129.796C150.758 129.186 150.638 128.534 150.65 127.877C150.663 127.22 150.808 126.572 151.076 125.972C151.345 125.372 151.732 124.833 152.214 124.387C153.14 123.529 154.362 123.064 155.624 123.088C156.886 123.112 158.089 123.623 158.982 124.515C159.875 125.407 160.388 126.61 160.413 127.871C160.438 129.133 159.974 130.356 159.117 131.282Z" fill="#083D21"/>
<path d="M73.3149 162.685C85.1661 174.536 101.24 181.194 118 181.194C134.76 181.194 150.834 174.536 162.685 162.685C174.536 150.833 181.194 134.76 181.194 118C181.194 101.239 174.536 85.1656 162.685 73.3144C150.785 61.7132 134.793 55.2674 118.174 55.3732C101.555 55.479 85.6465 62.1279 73.8948 73.8796C62.1431 85.6313 55.4943 101.54 55.3885 118.159C55.2827 134.778 61.7285 150.77 73.3297 162.67M111.503 169.529C107.926 170.111 104.378 170.679 101.163 169.676C97.8736 168.607 95.3366 166.026 92.8144 163.444C91.2804 161.881 89.7538 160.317 88.0575 159.1C86.3834 157.906 84.4585 156.94 82.5263 155.981C79.2813 154.358 76.0215 152.736 73.9713 149.955C71.9579 147.227 71.4269 143.657 70.8885 140.073C70.5714 137.905 70.2469 135.736 69.5979 133.745C68.9858 131.865 68.0123 130.013 67.0314 128.14C65.3425 124.917 63.6168 121.628 63.6168 117.985C63.6168 114.423 65.3351 111.119 67.024 107.874C68.0389 106.069 68.8999 104.181 69.5979 102.232C70.2469 100.233 70.5788 98.0575 70.9107 95.8893C71.4564 92.3272 72.0021 88.765 73.9639 86.0068C75.992 83.1895 79.2739 81.5818 82.5337 79.9593C84.4555 79.0803 86.3028 78.0468 88.0575 76.8692C89.6888 75.5891 91.2176 74.1836 92.63 72.6654C95.2113 70.0399 97.8146 67.3775 101.163 66.286C104.334 65.2535 107.837 65.8362 111.414 66.4262C113.591 66.8438 115.799 67.0855 118.015 67.1489C120.154 67.1489 122.344 66.7949 124.527 66.4409C128.104 65.8657 131.651 65.2904 134.867 66.2934C138.156 67.3628 140.693 69.9514 143.215 72.5253C144.749 74.0888 146.276 75.6523 147.972 76.8765C149.732 78.0568 151.581 79.0974 153.503 79.9888C156.748 81.6113 160.008 83.2338 162.058 86.0142C164.072 88.7429 164.603 92.3124 165.141 95.8967C165.396 98.0404 165.827 100.159 166.432 102.232C167.13 104.166 167.988 106.038 168.998 107.829C170.694 111.052 172.413 114.349 172.413 117.985C172.413 121.547 170.694 124.851 169.006 128.096C168.017 129.991 167.051 131.857 166.432 133.745C165.783 135.736 165.451 137.912 165.119 140.08C164.573 143.65 164.027 147.205 162.066 149.963C160.038 152.78 156.756 154.395 153.496 156.01C151.564 156.954 149.639 157.906 147.972 159.108C146.372 160.288 144.889 161.792 143.4 163.312C140.818 165.93 138.215 168.592 134.867 169.684C131.607 170.716 128.06 170.126 124.49 169.536C122.322 169.182 120.139 168.821 118.015 168.821C115.876 168.821 113.686 169.175 111.503 169.529Z" fill="#083D21"/>
<path d="M204.907 23.8431C197.883 16.8311 188.364 12.8928 178.439 12.8928C168.513 12.8928 158.994 16.8311 151.97 23.8431L150.495 25.3181C116.017 13.2674 76.1474 20.9964 48.5723 48.5715C20.9971 76.1466 13.2681 116.023 25.3189 150.494L23.8439 151.969C16.8318 158.993 12.8935 168.513 12.8935 178.438C12.8935 188.363 16.8318 197.883 23.8439 204.907L35.8651 216.928C42.8896 223.942 52.4107 227.882 62.3377 227.882C72.2646 227.882 81.7858 223.942 88.8102 216.928L92.8149 212.916C109.437 217.329 126.927 217.297 143.534 212.824C160.14 208.351 175.279 199.593 187.436 187.428C199.599 175.271 208.354 160.133 212.826 143.528C217.298 126.923 217.329 109.435 212.917 92.8141L216.929 88.8095C223.943 81.785 227.883 72.2639 227.883 62.337C227.883 52.41 223.943 42.8889 216.929 35.8644L204.907 23.8431ZM162.398 34.2788C166.656 30.0319 172.425 27.647 178.439 27.647C184.453 27.647 190.221 30.0319 194.479 34.2788L206.5 46.3C210.747 50.5582 213.132 56.3267 213.132 62.3406C213.132 68.3546 210.747 74.1231 206.5 78.3813L196.153 88.721C201.766 103.723 202.944 120.022 199.548 135.675C196.152 151.327 188.325 165.673 177 177C165.674 188.324 151.328 196.151 135.675 199.547C120.023 202.943 103.723 201.765 88.7217 196.153L78.3746 206.5C74.1165 210.747 68.3479 213.132 62.334 213.132C56.32 213.132 50.5515 210.747 46.2934 206.5L34.2721 194.479C30.0252 190.22 27.6403 184.452 27.6403 178.438C27.6403 172.424 30.0252 166.655 34.2721 162.397L42.6944 153.982C27.8706 122.963 33.3134 84.6869 59.0005 58.9998C84.6876 33.3126 122.964 27.8773 153.976 42.6936L162.398 34.2788Z" fill="#083D21"/>
<path d="M39.468 7.22702C36.865 8.37102 34.368 9.76402 30.442 9.11102C35.577 3.24102 41.039 5.18102 43.5 7.08502C41.752 6.26102 40.616 6.72302 39.469 7.22702C39.629 6.89402 39.201 6.65902 38.219 6.51702M28.866 9.18202C26.67 9.00202 23.14 9.10402 20.982 11.102C16.975 14.81 13.146 15.087 9.351 13.909C16.247 4.93902 26.158 4.91702 28.866 9.18202ZM35.93 15.552C34.527 17.94 33.472 20.965 27.725 20.812C24.573 19.085 21.623 16.451 15.167 19.177C10.767 21.034 7.977 19.963 4.5 18.537C8.498 18.43 12.607 19.203 16.495 16.347C22.528 11.915 28.599 9.24102 35.931 15.551L35.93 15.552Z" stroke="#083D21" stroke-linecap="round" stroke-linejoin="round"/>
<path d="M226.735 200.201C222.993 201.846 219.404 203.848 213.76 202.91C221.142 194.471 228.994 197.26 232.531 199.997C230.018 198.813 228.386 199.477 226.737 200.201C226.967 199.723 226.351 199.385 224.94 199.181M211.495 203.012C208.338 202.753 203.264 202.899 200.162 205.772C194.402 211.102 188.897 211.5 183.442 209.807C193.355 196.912 207.602 196.881 211.495 203.012ZM221.649 212.168C219.633 215.601 218.116 219.95 209.855 219.73C205.324 217.247 201.083 213.461 191.803 217.379C185.478 220.049 181.467 218.509 176.469 216.459C182.216 216.306 188.123 217.417 193.712 213.311C202.384 206.94 211.111 203.096 221.651 212.167L221.649 212.168Z" stroke="#083D21" stroke-linecap="round" stroke-linejoin="round"/>
</g>
<defs>
<clipPath id="clip0_123_48">
<rect width="236" height="236" fill="white" transform="matrix(-1 0 0 1 236 0)"/>
</clipPath>
</defs>
</svg>
